<svg width="88" height="100" viewBox="0 0 88 100" fill="none" xmlns="http://www.w3.org/2000/svg">
<path d="M81.3559 20.4237L49.8305 1.6949C46.1017 -0.508489 41.4407 -0.508489 37.6271 1.6949L6.1017 20.4237C2.37288 22.6271 0 26.7796 0 31.2712V68.7288C0 73.2203 2.28814 77.2881 6.1017 79.5763L37.6271 98.3051C39.4915 99.4068 41.6102 100 43.7288 100C45.8475 100 47.9661 99.4068 49.8305 98.3051L81.3559 79.5763C85.0847 77.3729 87.4576 73.2203 87.4576 68.7288V31.1864C87.4576 26.7796 85.1695 22.6271 81.3559 20.4237Z" fill="white"/>
<path d="M81.3559 20.4237L49.8305 1.69492C47.9661 0.59322 45.8475 0 43.7288 0C41.6102 0 39.4915 0.59322 37.6271 1.69492L6.1017 20.4237C2.37288 22.6271 0 26.7797 0 31.2712V68.7288C0 73.2203 2.28814 77.2881 6.1017 79.5763L37.6271 98.3051C39.4915 99.4068 41.6102 100 43.7288 100C45.8475 100 47.9661 99.4068 49.8305 98.3051L81.3559 79.5763C85.0847 77.3729 87.4576 73.2203 87.4576 68.7288V31.1864C87.4576 26.7797 85.1695 22.6271 81.3559 20.4237ZM38.7288 96.2712L7.20339 77.5424C4.15254 75.678 2.20339 72.2881 2.20339 68.6441V31.1864C2.20339 27.5424 4.15254 24.0678 7.20339 22.2881L38.7288 3.55932C40.2542 2.62712 41.9492 2.20339 43.7288 2.20339C45.5085 2.20339 47.2034 2.71186 48.7288 3.55932L80.2542 22.2881C82.8814 23.8136 84.5763 26.5254 85.0847 29.4915C84.0678 27.2881 81.6949 26.6102 78.8983 28.2203L49.1525 46.6949C45.4237 48.8983 42.7119 51.2712 42.7119 55.7627V92.5424C42.7119 95.2542 43.8136 96.9492 45.4237 97.4576C44.9153 97.5424 44.322 97.6271 43.7288 97.6271C42.0339 97.7119 40.2542 97.2034 38.7288 96.2712Z" fill="#2A3238"/>
<path d="M73.1356 72.2881L65.2543 76.9491C65.0848 77.0339 64.9153 77.2034 64.9153 77.4576V79.4915C64.9153 79.7458 65.0848 79.8305 65.2543 79.7458L73.2204 74.9152C73.3899 74.8305 73.4746 74.5763 73.4746 74.322V72.5424C73.4746 72.2881 73.3051 72.2034 73.1356 72.2881Z" fill="#4DA925"/>
<path d="M56.3559 55C56.6101 54.8305 56.7796 55 56.8643 55.3389V58.0508C57.966 57.6271 58.983 57.4576 59.9152 57.7118C60.0847 57.7966 60.1694 58.0508 60.0847 58.305L59.4915 60.6779C59.4067 60.8474 59.322 61.0169 59.2372 61.1864C59.1525 61.2712 59.1525 61.2712 59.0677 61.2712C58.983 61.2712 58.8982 61.3559 58.8135 61.2712C58.3898 61.1864 57.4576 60.9322 55.9321 61.7796C54.322 62.6271 53.7288 63.983 53.8135 65C53.8135 66.2712 54.4915 66.6101 56.6101 66.6101C59.4915 66.6949 60.7626 67.9661 60.8474 70.8474C60.8474 73.7288 59.322 76.8644 56.9491 78.7288L57.0338 81.4406C57.0338 81.7796 56.8643 82.1186 56.6101 82.2881L54.9999 83.2203C54.7457 83.3898 54.5762 83.2203 54.4915 82.8813V80.2542C53.1355 80.8474 51.7796 80.9322 50.8474 80.5932C50.6779 80.5084 50.5932 80.2542 50.6779 80L51.2711 77.5423C51.3559 77.3728 51.4406 77.1186 51.5254 77.0339C51.6101 76.9491 51.6101 76.9491 51.6949 76.9491C51.7796 76.8644 51.8643 76.8644 51.9491 76.9491C52.8813 77.2881 54.1525 77.1186 55.2542 76.5254C56.7796 75.7627 57.7118 74.2373 57.7118 72.7118C57.7118 71.3559 56.9491 70.7627 55.1694 70.7627C52.8813 70.7627 50.7626 70.3389 50.6779 66.9491C50.6779 64.1525 52.1186 61.2712 54.4067 59.4915V56.7796C54.4067 56.4406 54.5762 56.1017 54.8304 55.9322L56.3559 55Z" fill="white"/>
</svg>
