<svg width="89" height="100" viewBox="0 0 89 100" fill="none" xmlns="http://www.w3.org/2000/svg">
<path d="M4.43106 74.096L8.10205 76.2155L48.9984 5.38308L45.3274 3.26357L4.43106 74.096Z" fill="#E535AB"/>
<path d="M85.383 68.4372H3.59039V72.6762H85.383V68.4372Z" fill="#E535AB"/>
<path d="M5.20896 70.8187L46.1206 94.4397L48.2401 90.7687L7.32846 67.1477L5.20896 70.8187Z" fill="#E535AB"/>
<path d="M40.7489 9.25609L81.6605 32.8771L83.78 29.2061L42.8684 5.5851L40.7489 9.25609Z" fill="#E535AB"/>
<path d="M5.22021 29.19L7.33972 32.861L48.2514 9.23992L46.1319 5.56893L5.22021 29.19Z" fill="#E535AB"/>
<path d="M40.0098 5.38388L80.9061 76.2163L84.5771 74.0968L43.6808 3.26437L40.0098 5.38388Z" fill="#E535AB"/>
<path d="M11.0726 26.379H6.83356V73.6211H11.0726V26.379Z" fill="#E535AB"/>
<path d="M82.1655 26.379H77.9265V73.6211H82.1655V26.379Z" fill="#E535AB"/>
<path d="M43.5475 89.4387L45.3989 92.6453L80.9809 72.1014L79.1296 68.8948L43.5475 89.4387Z" fill="#E535AB"/>
<path d="M87.7835 75C85.332 79.2646 79.8672 80.7201 75.6027 78.2687C71.3381 75.8172 69.8826 70.3524 72.3341 66.0879C74.7855 61.8233 80.2503 60.3677 84.5149 62.8192C88.8049 65.2962 90.2605 70.7355 87.7835 75Z" fill="#E535AB"/>
<path d="M16.6394 33.9122C14.188 38.1767 8.7232 39.6323 4.45865 37.1808C0.194093 34.7293 -1.26147 29.2646 1.19001 25C3.64149 20.7355 9.10625 19.2799 13.3708 21.7314C17.6354 24.2084 19.0909 29.6476 16.6394 33.9122Z" fill="#E535AB"/>
<path d="M1.21552 75C-1.23596 70.7355 0.219605 65.2962 4.48416 62.8192C8.74872 60.3677 14.1879 61.8233 16.665 66.0879C19.1164 70.3524 17.6609 75.7916 13.3963 78.2687C9.10622 80.7201 3.667 79.2646 1.21552 75Z" fill="#E535AB"/>
<path d="M72.3596 33.9122C69.9081 29.6476 71.3636 24.2084 75.6282 21.7314C79.8928 19.2799 85.332 20.7355 87.809 25C90.2605 29.2646 88.8049 34.7038 84.5404 37.1808C80.2758 39.6323 74.811 38.1767 72.3596 33.9122Z" fill="#E535AB"/>
<path d="M44.4995 100C39.571 100 35.5873 96.0163 35.5873 91.0878C35.5873 86.1593 39.571 82.1757 44.4995 82.1757C49.428 82.1757 53.4116 86.1593 53.4116 91.0878C53.4116 95.9908 49.428 100 44.4995 100Z" fill="#E535AB"/>
<path d="M44.4995 17.8243C39.571 17.8243 35.5873 13.8407 35.5873 8.91216C35.5873 3.98366 39.571 0 44.4995 0C49.428 0 53.4116 3.98366 53.4116 8.91216C53.4116 13.8407 49.428 17.8243 44.4995 17.8243Z" fill="#E535AB"/>
</svg>
