<svg width="129" height="134" viewBox="0 0 129 134" fill="none" xmlns="http://www.w3.org/2000/svg">
<path d="M111.874 93.64C99.221 100.947 82.4359 104.97 64.6119 104.97C46.7879 104.97 30.004 100.947 17.351 93.64C12.566 90.878 8.58091 87.763 5.44891 84.392C2.53791 88.511 0.919922 92.998 0.919922 97.697C0.919922 117.545 29.4919 133.693 64.6119 133.693C99.7319 133.693 128.305 117.545 128.305 97.697C128.305 92.998 126.687 88.511 123.776 84.392C120.644 87.763 116.658 90.878 111.874 93.64Z" fill="#166788"/>
<path d="M125.022 53.907C121.727 57.825 117.322 61.43 111.874 64.576C110.418 65.417 108.9 66.209 107.34 66.962C106.617 67.31 105.882 67.646 105.139 67.974C104.391 68.306 103.632 68.625 102.864 68.937C91.7109 73.459 78.4809 75.906 64.6129 75.906C50.7449 75.906 37.5149 73.46 26.3619 68.937C25.5939 68.625 24.8349 68.306 24.0869 67.974C23.3449 67.646 22.6079 67.31 21.8869 66.962C20.3249 66.209 18.8089 65.417 17.3529 64.576C11.9049 61.43 7.49889 57.825 4.2049 53.907C2.08689 57.488 0.921875 61.313 0.921875 65.291C0.921875 69.989 2.53989 74.477 5.44989 78.595C5.81089 79.106 6.1919 79.611 6.5929 80.109C6.9679 80.577 7.35888 81.039 7.76788 81.495C18.2779 93.224 39.8049 101.287 64.6149 101.287C89.4249 101.287 110.952 93.224 121.463 81.495C121.872 81.039 122.263 80.577 122.638 80.109C123.038 79.611 123.419 79.107 123.78 78.596C126.691 74.477 128.309 69.991 128.309 65.291C128.306 61.313 127.141 57.487 125.022 53.907Z" fill="#166788"/>
<path d="M64.6119 0.22998C29.4919 0.22998 0.919922 16.377 0.919922 36.225C0.919922 40.204 2.08494 44.028 4.20294 47.608C4.52994 48.163 4.88097 48.71 5.25397 49.252C5.60397 49.76 5.97296 50.262 6.36096 50.759C10.795 56.412 17.72 61.307 26.361 64.987C27.176 65.335 28.007 65.672 28.853 65.997C29.72 66.33 30.6009 66.652 31.4979 66.963C41.1529 70.297 52.4919 72.222 64.6119 72.222C76.7319 72.222 88.071 70.297 97.726 66.963C98.623 66.652 99.5039 66.33 100.371 65.997C101.217 65.672 102.048 65.335 102.863 64.987C111.505 61.307 118.429 56.413 122.863 50.759C123.253 50.262 123.621 49.76 123.971 49.252C124.344 48.71 124.695 48.163 125.022 47.609C127.14 44.028 128.305 40.204 128.305 36.225C128.306 16.377 99.7319 0.22998 64.6119 0.22998ZM97.809 42.48C97.629 42.785 97.4379 43.085 97.2329 43.383C97.0399 43.661 96.838 43.938 96.624 44.211C94.188 47.317 90.3819 50.007 85.6339 52.028C85.1849 52.219 84.73 52.405 84.265 52.584C83.788 52.767 83.304 52.944 82.812 53.114C77.505 54.946 71.2749 56.005 64.6149 56.005C57.9549 56.005 51.724 54.946 46.418 53.114C45.926 52.944 45.441 52.766 44.965 52.584C44.5 52.405 44.0429 52.22 43.5959 52.028C38.8479 50.007 35.041 47.317 32.606 44.211C32.393 43.938 32.1899 43.661 31.9969 43.383C31.7939 43.085 31.601 42.784 31.421 42.48C30.257 40.513 29.616 38.412 29.616 36.225C29.616 25.319 45.317 16.445 64.616 16.445C83.915 16.445 99.616 25.319 99.616 36.225C99.613 38.412 98.973 40.513 97.809 42.48Z" fill="#1A1A1A"/>
</svg>
