<svg width="45" height="100" viewBox="0 0 45 100" fill="none" xmlns="http://www.w3.org/2000/svg">
<path d="M44.0879 39.7953C38.8207 16.5575 27.8281 10.3696 25.0388 5.99551C23.5227 3.61609 21.9769 0 21.9769 0C21.8257 2.0611 21.5578 3.36646 19.799 4.9329C16.2768 8.07264 1.30864 20.2698 0.0513673 46.6748C-1.12117 71.2935 18.1432 86.4769 20.7036 88.0456C22.6593 89.0075 25.0548 88.0639 26.1999 87.1823C35.484 80.8066 48.1849 63.8071 44.0765 39.7953" fill="#10AA50"/>
<path d="M22.7739 74.9324C22.2907 81.0287 21.9426 84.5761 20.7128 88.0525C20.7128 88.0525 21.5235 93.8533 22.0869 100H24.0953C24.5747 95.6709 25.3065 91.3734 26.2869 87.1296C23.6854 85.854 22.8724 80.2798 22.7739 74.9324Z" fill="#B8C4C2"/>
<path d="M26.2846 87.1341C23.6556 85.9204 22.8953 80.234 22.7785 74.9324C23.4262 66.1917 23.6135 57.4229 23.3395 48.6625C23.2021 44.0663 23.4082 6.08479 22.2082 0.524403C22.6937 1.61221 23.8663 4.16797 25.0388 5.99319C27.8396 10.3696 38.823 16.5575 44.0857 39.7975C48.1872 63.7475 35.5619 80.7172 26.2846 87.1341Z" fill="#12924F"/>
</svg>
