<svg width="101" height="101" viewBox="0 0 101 101" fill="none" xmlns="http://www.w3.org/2000/svg">
<path d="M50.6 97.9998C24.3 97.9998 3 76.5998 3 50.3998C3 24.1998 24.4 2.7998 50.6 2.7998C76.8 2.7998 98.2 24.1998 98.2 50.3998C98.2 76.5998 76.8 97.9998 50.6 97.9998Z" fill="#85EA2D"/>
<path d="M50.5996 5.0999C75.5996 5.0999 95.8996 25.3999 95.8996 50.3999C95.8996 75.3999 75.5996 95.6999 50.5996 95.6999C25.5996 95.6999 5.29961 75.3999 5.29961 50.3999C5.29961 25.3999 25.5996 5.0999 50.5996 5.0999ZM50.5996 0.399902C22.9996 0.399902 0.599609 22.7999 0.599609 50.3999C0.599609 77.9999 22.9996 100.4 50.5996 100.4C78.1996 100.4 100.6 77.9999 100.6 50.3999C100.6 22.7999 78.0996 0.399902 50.5996 0.399902Z" fill="#173647"/>
<path d="M31.9994 34.2C31.7994 35.9 32.0994 37.7 31.8994 39.4C31.7994 41.1 31.5994 42.8 31.1994 44.6C30.6994 47 29.1994 48.9 27.0994 50.4C31.1994 53.1 31.5994 57.2 31.8994 61.3C31.9994 63.6 31.9994 65.8 32.1994 68.1C32.3994 69.8 32.9994 70.3 34.7994 70.3C35.4994 70.3 36.2994 70.3 37.0994 70.3V75.6C31.7994 76.5 27.3994 75 26.3994 70.5C26.0994 68.9 25.7994 67.2 25.6994 65.5C25.5994 63.7 25.7994 61.9 25.5994 60.1C25.1994 55.2 24.5994 53.5 19.8994 53.3V47.2C20.1994 47.1 20.5994 47.1 20.8994 47C23.4994 46.9 24.5994 46.1 25.0994 43.5C25.3994 42.1 25.4994 40.6 25.5994 39.2C25.7994 36.4 25.6994 33.6 26.1994 30.8C26.8994 26.8 29.2994 24.9 33.3994 24.7C34.5994 24.6 35.6994 24.7 37.0994 24.7V30.2C36.4994 30.2 36.0994 30.3 35.5994 30.3C32.4994 30.3 32.2994 31.4 31.9994 34.2ZM38.3994 46.9C36.3994 46.8 34.6994 48.3 34.5994 50.2C34.4994 52.1 35.9994 53.8 37.8994 53.9H38.0994C39.9994 54 41.5994 52.6 41.7994 50.6V50.4C41.8994 48.5 40.3994 46.9 38.3994 46.9ZM50.4994 46.9C48.5994 46.8 47.0994 48.3 46.9994 50.2C46.9994 50.3 46.9994 50.4 46.9994 50.5C46.9994 52.6 48.3994 53.9 50.5994 53.9C52.6994 53.9 53.9994 52.5 53.9994 50.3C53.9994 48.2 52.5994 46.9 50.4994 46.9ZM62.8994 46.9C60.8994 46.9 59.2994 48.4 59.1994 50.4C59.1994 52.4 60.7994 53.9 62.6994 53.9C64.4994 54.2 66.2994 52.5 66.3994 50.4C66.4994 48.5 64.7994 46.9 62.8994 46.9ZM79.7994 47.2C77.5994 47.1 76.4994 46.4 75.8994 44.2C75.5994 42.9 75.2994 41.4 75.2994 40.1C75.0994 37.5 75.1994 34.9 74.9994 32.3C74.5994 26.2 70.1994 24 63.6994 25.1V30.4C64.6994 30.4 65.4994 30.4 66.2994 30.4C67.6994 30.4 68.6994 30.9 68.7994 32.5C68.8994 33.9 68.8994 35.3 69.0994 36.7C69.3994 39.5 69.4994 42.3 69.9994 45.1C70.3994 47.4 71.9994 49.1 73.8994 50.4C70.4994 52.7 69.4994 56 69.2994 59.6C69.1994 62.1 69.0994 64.7 68.9994 67.2C68.8994 69.5 68.0994 70.3 65.6994 70.3C64.9994 70.3 64.3994 70.4 63.6994 70.4V75.8C65.0994 75.8 66.2994 75.9 67.5994 75.8C71.4994 75.6 73.7994 73.7 74.5994 69.9C74.8994 67.8 75.0994 65.7 75.1994 63.6C75.2994 61.7 75.2994 59.7 75.4994 57.8C75.7994 54.8 77.1994 53.6 80.0994 53.4C80.3994 53.4 80.6994 53.3 80.8994 53.2V47.1C80.4994 47.2 80.1994 47.2 79.7994 47.2Z" fill="#173647"/>
</svg>
