<svg viewBox="0 0 850 850" fill="none" xmlns="http://www.w3.org/2000/svg">
    <g clip-path="url(#clip0_138_22)">
        <path d="M188.926 0C193.906 0 651.445 0 659.746 0C682.656 0 704.902 3.65234 726.484 11.2891C757.695 22.5781 785.918 42.5 807.168 68.3984C828.75 94.2969 843.027 126.172 848.008 159.375C850 171.66 850.332 183.945 850.332 196.23C850.332 207.52 850.332 605.293 850.332 623.223C850.332 633.848 850.332 644.805 850.332 655.43C850.332 670.039 849.668 684.98 846.68 699.258C840.039 732.129 824.434 763.008 801.855 787.91C779.609 812.812 750.391 831.406 718.848 841.367C699.59 847.344 679.668 850 659.414 850C650.449 850 187.598 850 180.625 849.668C146.758 848.008 113.223 837.051 85 818.125C57.4415 799.531 34.8633 773.633 20.2539 743.75C7.63676 718.184 1.32817 689.629 1.32817 661.074C1.32817 654.434 1.32817 195.566 1.32817 188.926C0.664104 160.703 6.64067 132.813 18.9258 107.578C33.2032 77.6953 55.4493 51.4648 83.0079 32.8711C111.231 13.6133 144.434 2.32422 178.301 0.664062C181.621 0 185.273 0 188.926 0Z" fill="url(#paint0_linear_138_22)"/>
        <path d="M717.187 695.273C714.199 690.625 710.879 685.977 707.227 681.66C698.926 671.699 689.297 663.066 678.672 655.762C665.391 646.797 649.785 641.152 633.848 640.488C622.559 639.824 611.269 641.816 600.644 645.801C590.019 649.453 579.727 654.766 569.766 660.078C558.145 666.055 546.523 672.031 534.238 677.012C519.629 682.988 504.355 687.637 488.75 690.957C469.16 694.609 449.238 695.938 429.648 695.605C394.121 694.941 358.594 689.629 324.727 679.668C294.844 670.703 266.289 658.418 239.395 642.812C215.82 629.199 193.906 613.594 173.32 595.996C156.387 581.387 140.781 565.781 126.172 549.18C116.211 537.559 106.582 525.273 97.6172 512.656C93.9648 507.676 90.6445 502.363 87.6562 497.051L0 402.422V188.262C0 84.3359 84.0039 0 187.93 0H355.605L479.785 126.172C760.02 316.758 669.375 526.934 669.375 526.934C669.375 526.934 749.062 616.582 717.187 695.273Z" fill="url(#paint1_linear_138_22)"/>
        <path d="M480.449 126.172C760.684 316.758 670.039 526.934 670.039 526.934C670.039 526.934 749.727 616.914 717.52 695.605C717.52 695.605 684.648 640.488 629.531 640.488C576.406 640.488 545.195 695.605 438.281 695.605C200.215 695.605 87.6562 496.719 87.6562 496.719C302.148 637.832 448.574 537.891 448.574 537.891C351.953 481.777 146.426 213.496 146.426 213.496C325.391 365.898 402.754 406.074 402.754 406.074C356.602 367.891 227.109 181.289 227.109 181.289C330.703 286.211 536.563 432.637 536.563 432.637C595 270.605 480.449 126.172 480.449 126.172Z" fill="black"/>
    </g>
    <defs>
        <linearGradient id="paint0_linear_138_22" x1="631.5" y1="28" x2="582" y2="787" gradientUnits="userSpaceOnUse">
            <stop stop-color="#02D3FF"/>
            <stop offset="1" stop-color="#006FFD"/>
        </linearGradient>
        <linearGradient id="paint1_linear_138_22" x1="59.5" y1="72.5" x2="500" y2="572.5" gradientUnits="userSpaceOnUse">
            <stop stop-color="#01D8FF"/>
            <stop offset="1" stop-color="#0167FD"/>
        </linearGradient>
        <clipPath id="clip0_138_22">
            <rect width="850" height="850" fill="white"/>
        </clipPath>
    </defs>
</svg>
